<svg xmlns="http://www.w3.org/2000/svg" viewBox="0 0 18.214 18.822">
  <defs>
    <style>
      .cls-1 {
        fill: none;
        stroke: #fff;
        stroke-linecap: round;
        stroke-miterlimit: 10;
        stroke-width: 2px;
      }
    </style>
  </defs>
  <g id="icon_search" transform="translate(1 1)">
    <path id="Path_1" data-name="Path 1" class="cls-1" d="M7.957,1.5a5.958,5.958,0,0,1,2.507.532,6.6,6.6,0,0,1,2.127,1.443A7.015,7.015,0,0,1,14.034,5.6a6.716,6.716,0,0,1,.532,2.507,5.958,5.958,0,0,1-.532,2.507,6.6,6.6,0,0,1-1.443,2.127,7.015,7.015,0,0,1-2.127,1.443,6.715,6.715,0,0,1-2.507.532,5.724,5.724,0,0,1-2.507-.532,6.6,6.6,0,0,1-2.127-1.443A7.015,7.015,0,0,1,1.88,10.616,6.289,6.289,0,0,1,1.5,7.957,5.958,5.958,0,0,1,2.032,5.45,6.6,6.6,0,0,1,3.475,3.323,7.015,7.015,0,0,1,5.6,1.88,7.648,7.648,0,0,1,7.957,1.5Z" transform="translate(-1.5 -1.5)"/>
    <line id="Line_9" data-name="Line 9" class="cls-1" x2="4.938" y2="5.014" transform="translate(10.863 11.394)"/>
  </g>
</svg>
